<svg xmlns="http://www.w3.org/2000/svg" width="800" height="500" viewBox="0 0 800 500">
  <!-- Background -->
  <rect width="800" height="500" fill="#f8fafc" rx="8" />
  
  <!-- Header -->
  <rect x="0" y="0" width="800" height="60" fill="#ffffff" />
  <rect x="20" y="20" width="150" height="20" fill="#3b82f6" rx="4" />
  <circle cx="740" cy="30" r="15" fill="#e2e8f0" />
  <circle cx="700" cy="30" r="15" fill="#e2e8f0" />
  
  <!-- Toolbar -->
  <rect x="20" y="80" width="200" height="30" fill="#ffffff" rx="4" />
  <rect x="650" y="80" width="130" height="30" fill="#3b82f6" rx="4" />
  
  <!-- Table Header -->
  <rect x="20" y="130" width="760" height="40" fill="#f1f5f9" rx="4" />
  <rect x="30" y="140" width="100" height="20" fill="#94a3b8" rx="2" />
  <rect x="150" y="140" width="100" height="20" fill="#94a3b8" rx="2" />
  <rect x="270" y="140" width="100" height="20" fill="#94a3b8" rx="2" />
  <rect x="390" y="140" width="100" height="20" fill="#94a3b8" rx="2" />
  <rect x="510" y="140" width="100" height="20" fill="#94a3b8" rx="2" />
  <rect x="630" y="140" width="100" height="20" fill="#94a3b8" rx="2" />
  
  <!-- Table Rows -->
  <rect x="20" y="180" width="760" height="50" fill="#ffffff" rx="4" />
  <rect x="30" y="195" width="100" height="20" fill="#e2e8f0" rx="2" />
  <rect x="150" y="195" width="100" height="20" fill="#e2e8f0" rx="2" />
  <rect x="270" y="195" width="100" height="20" fill="#e2e8f0" rx="2" />
  <rect x="390" y="195" width="100" height="20" fill="#e2e8f0" rx="2" />
  <rect x="510" y="195" width="60" height="20" fill="#22c55e" rx="10" />
  <rect x="630" y="195" width="60" height="20" fill="#3b82f6" rx="2" />
  
  <rect x="20" y="240" width="760" height="50" fill="#ffffff" rx="4" />
  <rect x="30" y="255" width="100" height="20" fill="#e2e8f0" rx="2" />
  <rect x="150" y="255" width="100" height="20" fill="#e2e8f0" rx="2" />
  <rect x="270" y="255" width="100" height="20" fill="#e2e8f0" rx="2" />
  <rect x="390" y="255" width="100" height="20" fill="#e2e8f0" rx="2" />
  <rect x="510" y="255" width="60" height="20" fill="#eab308" rx="10" />
  <rect x="630" y="255" width="60" height="20" fill="#3b82f6" rx="2" />
  
  <rect x="20" y="300" width="760" height="50" fill="#ffffff" rx="4" />
  <rect x="30" y="315" width="100" height="20" fill="#e2e8f0" rx="2" />
  <rect x="150" y="315" width="100" height="20" fill="#e2e8f0" rx="2" />
  <rect x="270" y="315" width="100" height="20" fill="#e2e8f0" rx="2" />
  <rect x="390" y="315" width="100" height="20" fill="#e2e8f0" rx="2" />
  <rect x="510" y="315" width="60" height="20" fill="#ef4444" rx="10" />
  <rect x="630" y="315" width="60" height="20" fill="#3b82f6" rx="2" />
  
  <rect x="20" y="360" width="760" height="50" fill="#ffffff" rx="4" />
  <rect x="30" y="375" width="100" height="20" fill="#e2e8f0" rx="2" />
  <rect x="150" y="375" width="100" height="20" fill="#e2e8f0" rx="2" />
  <rect x="270" y="375" width="100" height="20" fill="#e2e8f0" rx="2" />
  <rect x="390" y="375" width="100" height="20" fill="#e2e8f0" rx="2" />
  <rect x="510" y="375" width="60" height="20" fill="#a855f7" rx="10" />
  <rect x="630" y="375" width="60" height="20" fill="#3b82f6" rx="2" />
  
  <rect x="20" y="420" width="760" height="50" fill="#ffffff" rx="4" />
  <rect x="30" y="435" width="100" height="20" fill="#e2e8f0" rx="2" />
  <rect x="150" y="435" width="100" height="20" fill="#e2e8f0" rx="2" />
  <rect x="270" y="435" width="100" height="20" fill="#e2e8f0" rx="2" />
  <rect x="390" y="435" width="100" height="20" fill="#e2e8f0" rx="2" />
  <rect x="510" y="435" width="60" height="20" fill="#22c55e" rx="10" />
  <rect x="630" y="435" width="60" height="20" fill="#3b82f6" rx="2" />
</svg>
